<svg width="1560" height="196" viewBox="0 0 1560 196" fill="none" xmlns="http://www.w3.org/2000/svg">
<path d="M0.69375 138H19.8938V3.59999H0.69375V138ZM39.1313 138H108.059V118.8H58.3313V3.59999H39.1313V138ZM117.694 138H186.622V118.8H136.894V3.59999H117.694V138ZM227.123 3.59999L246.323 138H265.715L246.515 3.59999H207.731L188.531 138H207.923L227.123 3.59999ZM275.381 3.59999V138H294.581V80.4H337.973L371.381 138H393.461C378.293 111.12 366.389 80.784 333.173 73.296V72.72C339.509 74.064 345.845 74.832 352.373 74.832C374.453 74.832 389.237 65.808 389.237 42C389.237 20.112 371.765 3.59999 350.069 3.59999H275.381ZM350.069 22.8C361.013 22.8 370.037 30.864 370.037 42C370.037 53.136 361.013 61.2 350.069 61.2H294.581V22.8H350.069ZM406.819 138H426.019V3.59999H406.819V138ZM457.736 70.8C457.736 41.808 479.624 19.92 508.616 19.92C537.608 19.92 559.496 41.808 559.496 70.8C559.496 99.792 537.608 121.68 508.616 121.68C479.624 121.68 457.736 99.792 457.736 70.8ZM438.536 70.8C438.536 110.736 468.68 140.88 508.616 140.88C548.552 140.88 578.696 110.736 578.696 70.8C578.696 30.864 548.552 0.719994 508.616 0.719994C468.68 0.719994 438.536 30.864 438.536 70.8ZM630.299 3.59999H591.131V138H610.331V3.59999L648.731 138H687.899V3.59999H668.699V138L630.299 3.59999ZM748.286 70.8C748.286 110.736 778.43 140.88 818.366 140.88C837.758 140.88 854.846 133.776 867.326 121.872V70.992H799.166V90.192H865.598C858.302 109.008 840.446 121.68 818.366 121.68C789.374 121.68 767.486 99.792 767.486 70.8C767.486 41.808 789.374 19.92 818.366 19.92C842.366 19.92 861.374 34.896 867.326 56.4V19.728C854.846 7.82399 837.758 0.719994 818.366 0.719994C778.43 0.719994 748.286 30.864 748.286 70.8ZM897.049 70.8C897.049 41.808 918.937 19.92 947.929 19.92C976.921 19.92 998.809 41.808 998.809 70.8C998.809 99.792 976.921 121.68 947.929 121.68C918.937 121.68 897.049 99.792 897.049 70.8ZM877.849 70.8C877.849 110.736 907.993 140.88 947.929 140.88C987.865 140.88 1018.01 110.736 1018.01 70.8C1018.01 30.864 987.865 0.719994 947.929 0.719994C907.993 0.719994 877.849 30.864 877.849 70.8ZM1308.46 114.576C1308.46 94.608 1303.85 77.52 1294.64 63.504C1287.53 52.752 1278.32 44.496 1266.6 38.544C1254.89 32.592 1242.41 29.52 1229.55 29.52C1213.61 29.52 1199.6 33.744 1187.5 42C1173.68 51.216 1166.19 68.304 1166.19 85.392C1166.19 91.92 1167.15 97.872 1169.26 103.248C1159.08 109.584 1148.33 114.384 1136.62 117.648C1131.44 105.168 1127.6 92.496 1125.29 79.824C1132.78 78.864 1137.96 78.096 1140.84 77.136C1145.84 75.6 1150.44 73.104 1154.48 69.648C1162.54 62.544 1166.57 54.288 1166.57 44.88C1166.57 36.24 1162.92 28.752 1155.82 22.8C1149.87 18 1142.19 14.544 1132.78 12.432C1128.36 11.472 1120.11 10.512 1107.05 9.168C1094.96 8.01599 1085.16 8.01599 1077.68 9.168C1064.62 11.28 1052.33 15.504 1040.62 22.224C1029.87 28.56 1021.42 36.048 1015.08 45.072C1007.98 55.248 1004.52 66 1004.52 77.328C1004.52 80.208 1004.91 83.088 1005.48 86.736C1008.75 104.976 1021.04 118.032 1042.73 125.904C1047.34 127.632 1051.56 128.592 1055.6 129.168C1050.03 135.12 1043.69 137.808 1036.2 137.424V138C1044.84 137.808 1053.68 137.616 1063.47 137.616C1070.57 137.616 1079.98 137.808 1092.27 138V137.424C1082.86 137.232 1077.48 134.928 1075.95 130.128L1075.76 129.744C1092.65 129.936 1108.78 127.632 1124.14 122.832C1126.44 127.632 1129.32 132.24 1132.59 137.424C1143.15 153.744 1156.97 167.568 1173.68 178.896C1189.42 189.648 1205.36 195.024 1221.29 195.024C1234.92 195.024 1247.98 192.912 1260.27 188.88C1274.67 183.888 1285.42 176.784 1292.52 167.376C1303.08 152.976 1308.46 135.312 1308.46 114.576ZM1301.74 118.032C1301.74 138.96 1296.56 156.432 1286 170.448C1281.39 176.592 1275.44 181.2 1267.95 184.464C1262.19 186.96 1254.7 188.88 1245.29 190.224C1254.7 185.616 1259.5 179.472 1259.5 171.6C1259.5 164.688 1254.51 158.736 1247.79 161.04C1244.91 162.192 1243.18 164.496 1242.99 167.76C1242.99 169.104 1245.87 172.368 1245.87 174.48C1245.87 180.048 1242.41 184.464 1235.69 187.344C1231.28 189.456 1226.28 190.416 1221.1 190.416C1206.32 190.416 1191.15 183.696 1175.6 170.064C1163.12 159.12 1152.56 146.448 1143.92 131.856C1141.42 127.44 1139.5 123.6 1137.39 119.184C1146.6 116.304 1157.16 111.12 1169.45 104.016C1172.33 112.08 1176.17 117.648 1180.97 120.912C1176.17 114.576 1173.1 108.624 1171.76 102.672C1181.16 97.104 1189.8 89.04 1197.87 78.672C1204.78 70.032 1209.39 62.544 1211.5 56.016C1209 61.392 1204.4 68.496 1197.29 77.328C1188.65 88.272 1180.01 96.336 1171.56 101.904C1170.22 96.912 1169.64 91.536 1169.64 85.584C1169.64 65.808 1176.36 51.216 1189.8 42.192C1199.98 35.472 1211.31 32.016 1223.79 32.016C1236.27 32.016 1248.56 35.472 1260.27 42.192C1271.21 48.528 1280.43 57.36 1287.53 68.496C1290.8 73.68 1293.87 80.208 1296.56 87.696C1300.01 97.68 1301.74 107.856 1301.74 118.032ZM1152.17 40.464C1152.17 48.336 1149.48 55.632 1144.3 62.352C1137.2 71.376 1127.4 75.792 1114.73 75.792C1109.36 75.792 1103.4 74.832 1096.68 72.912C1096.68 70.8 1097.84 66.96 1100.14 61.2C1102.25 56.4 1103.6 52.944 1104.56 50.64C1109.16 38.928 1112.24 31.056 1113.77 26.64C1114.73 23.76 1116.08 21.84 1117.42 20.112C1120.3 16.848 1124.33 15.12 1129.32 15.12C1143.15 15.12 1152.17 26.064 1152.17 40.464ZM1122.99 120.72C1106.48 125.136 1090.54 127.056 1075.18 126.48C1075.76 124.368 1076.14 122.832 1076.72 121.872C1084.4 102.864 1090.35 87.888 1094.76 76.176C1099.37 78.288 1103.98 79.824 1108.4 80.4C1114.54 98.832 1119.34 112.08 1122.99 120.72ZM1098.41 23.952C1098.41 25.104 1098.03 26.64 1097.26 28.752L1064.62 113.616C1062.89 117.648 1060.97 121.68 1058.48 125.712C1055.6 125.136 1051.76 124.176 1046.96 122.448C1037.93 119.376 1030.25 114.768 1023.72 108.624C1015.85 101.328 1012.01 90.576 1012.01 76.368C1012.01 65.424 1014.7 55.248 1020.27 45.84C1027.76 32.784 1039.28 23.184 1054.44 17.232C1056.94 16.272 1060.78 15.12 1065.96 13.776C1072.3 12.24 1076.14 11.664 1077.48 12.048L1074.6 13.2C1064.24 15.12 1055.02 19.152 1046.96 25.296C1037.55 32.592 1032.75 41.04 1032.75 50.448C1032.75 58.32 1038.12 65.232 1046 65.232C1050.41 65.232 1055.4 62.736 1054.83 58.704C1054.64 57.744 1054.25 56.784 1053.68 56.208C1050.8 55.632 1048.49 55.248 1046.76 55.44C1042.92 53.904 1040.62 50.64 1040.04 45.84C1039.08 40.08 1041.58 34.128 1047.34 28.176C1056.36 19.152 1067.69 14.544 1081.13 14.544C1084.4 14.544 1088.04 15.312 1091.69 16.848C1096.11 18.576 1098.41 21.072 1098.41 23.952ZM1177.63 138H1234.46C1271.71 138 1300.51 109.008 1300.51 71.184C1300.51 33.36 1271.71 3.59999 1234.46 3.59999H1177.63V138ZM1234.66 22.8C1261.34 22.8 1281.31 43.92 1281.31 71.184C1281.31 98.64 1261.34 118.8 1234.66 118.8H1196.83V22.8H1234.66ZM1329.24 70.8C1329.24 41.808 1351.12 19.92 1380.12 19.92C1409.11 19.92 1431 41.808 1431 70.8C1431 99.792 1409.11 121.68 1380.12 121.68C1351.12 121.68 1329.24 99.792 1329.24 70.8ZM1310.04 70.8C1310.04 110.736 1340.18 140.88 1380.12 140.88C1420.05 140.88 1450.2 110.736 1450.2 70.8C1450.2 30.864 1420.05 0.719994 1380.12 0.719994C1340.18 0.719994 1310.04 30.864 1310.04 70.8ZM1501.8 3.59999H1462.63V138H1481.83V3.59999L1520.23 138H1559.4V3.59999H1540.2V138L1501.8 3.59999Z" fill="white"/>
</svg>
