<svg width="81" height="37" viewBox="0 0 81 37" fill="none" xmlns="http://www.w3.org/2000/svg">
<path d="M6.50225 14H8.40225V0.699999H6.50225V14ZM10.306 14H17.127V12.1H12.206V0.699999H10.306V14ZM18.0804 14H24.9014V12.1H19.9804V0.699999H18.0804V14ZM28.9093 0.699999L30.8093 14H32.7283L30.8283 0.699999H26.9903L25.0903 14H27.0093L28.9093 0.699999ZM33.6849 0.699999V14H35.5849V8.3H39.8789L43.1849 14H45.3699C43.8689 11.34 42.6909 8.338 39.4039 7.597V7.54C40.0309 7.673 40.6579 7.749 41.3039 7.749C43.4889 7.749 44.9519 6.856 44.9519 4.5C44.9519 2.334 43.2229 0.699999 41.0759 0.699999H33.6849ZM41.0759 2.6C42.1589 2.6 43.0519 3.398 43.0519 4.5C43.0519 5.602 42.1589 6.4 41.0759 6.4H35.5849V2.6H41.0759ZM46.6917 14H48.5917V0.699999H46.6917V14ZM51.7304 7.35C51.7304 4.481 53.8964 2.315 56.7654 2.315C59.6344 2.315 61.8004 4.481 61.8004 7.35C61.8004 10.219 59.6344 12.385 56.7654 12.385C53.8964 12.385 51.7304 10.219 51.7304 7.35ZM49.8304 7.35C49.8304 11.302 52.8134 14.285 56.7654 14.285C60.7174 14.285 63.7004 11.302 63.7004 7.35C63.7004 3.398 60.7174 0.414999 56.7654 0.414999C52.8134 0.414999 49.8304 3.398 49.8304 7.35ZM68.807 0.699999H64.931V14H66.831V0.699999L70.631 14H74.507V0.699999H72.607V14L68.807 0.699999ZM0.0389063 24.35C0.0389063 28.302 3.02191 31.285 6.97391 31.285C8.89291 31.285 10.5839 30.582 11.8189 29.404V24.369H5.07391V26.269H11.6479C10.9259 28.131 9.15891 29.385 6.97391 29.385C4.10491 29.385 1.93891 27.219 1.93891 24.35C1.93891 21.481 4.10491 19.315 6.97391 19.315C9.34891 19.315 11.2299 20.797 11.8189 22.925V19.296C10.5839 18.118 8.89291 17.415 6.97391 17.415C3.02191 17.415 0.0389063 20.398 0.0389063 24.35ZM14.7602 24.35C14.7602 21.481 16.9262 19.315 19.7952 19.315C22.6642 19.315 24.8302 21.481 24.8302 24.35C24.8302 27.219 22.6642 29.385 19.7952 29.385C16.9262 29.385 14.7602 27.219 14.7602 24.35ZM12.8602 24.35C12.8602 28.302 15.8432 31.285 19.7952 31.285C23.7472 31.285 26.7302 28.302 26.7302 24.35C26.7302 20.398 23.7472 17.415 19.7952 17.415C15.8432 17.415 12.8602 20.398 12.8602 24.35ZM55.4727 28.682C55.4727 26.706 55.0167 25.015 54.1047 23.628C53.4017 22.564 52.4897 21.747 51.3307 21.158C50.1717 20.569 48.9367 20.265 47.6637 20.265C46.0867 20.265 44.6997 20.683 43.5027 21.5C42.1347 22.412 41.3937 24.103 41.3937 25.794C41.3937 26.44 41.4887 27.029 41.6977 27.561C40.6907 28.188 39.6267 28.663 38.4677 28.986C37.9547 27.751 37.5747 26.497 37.3467 25.243C38.0877 25.148 38.6007 25.072 38.8857 24.977C39.3797 24.825 39.8357 24.578 40.2347 24.236C41.0327 23.533 41.4317 22.716 41.4317 21.785C41.4317 20.93 41.0707 20.189 40.3677 19.6C39.7787 19.125 39.0187 18.783 38.0877 18.574C37.6507 18.479 36.8337 18.384 35.5417 18.251C34.3447 18.137 33.3757 18.137 32.6347 18.251C31.3427 18.46 30.1267 18.878 28.9677 19.543C27.9037 20.17 27.0677 20.911 26.4407 21.804C25.7377 22.811 25.3957 23.875 25.3957 24.996C25.3957 25.281 25.4337 25.566 25.4907 25.927C25.8137 27.732 27.0297 29.024 29.1767 29.803C29.6327 29.974 30.0507 30.069 30.4497 30.126C29.8987 30.715 29.2717 30.981 28.5307 30.943V31C29.3857 30.981 30.2597 30.962 31.2287 30.962C31.9317 30.962 32.8627 30.981 34.0787 31V30.943C33.1477 30.924 32.6157 30.696 32.4637 30.221L32.4447 30.183C34.1167 30.202 35.7127 29.974 37.2327 29.499C37.4607 29.974 37.7457 30.43 38.0687 30.943C39.1137 32.558 40.4817 33.926 42.1347 35.047C43.6927 36.111 45.2697 36.643 46.8467 36.643C48.1957 36.643 49.4877 36.434 50.7037 36.035C52.1287 35.541 53.1927 34.838 53.8957 33.907C54.9407 32.482 55.4727 30.734 55.4727 28.682ZM54.8077 29.024C54.8077 31.095 54.2947 32.824 53.2497 34.211C52.7937 34.819 52.2047 35.275 51.4637 35.598C50.8937 35.845 50.1527 36.035 49.2217 36.168C50.1527 35.712 50.6277 35.104 50.6277 34.325C50.6277 33.641 50.1337 33.052 49.4687 33.28C49.1837 33.394 49.0127 33.622 48.9937 33.945C48.9937 34.078 49.2787 34.401 49.2787 34.61C49.2787 35.161 48.9367 35.598 48.2717 35.883C47.8347 36.092 47.3407 36.187 46.8277 36.187C45.3647 36.187 43.8637 35.522 42.3247 34.173C41.0897 33.09 40.0447 31.836 39.1897 30.392C38.9427 29.955 38.7527 29.575 38.5437 29.138C39.4557 28.853 40.5007 28.34 41.7167 27.637C42.0017 28.435 42.3817 28.986 42.8567 29.309C42.3817 28.682 42.0777 28.093 41.9447 27.504C42.8757 26.953 43.7307 26.155 44.5287 25.129C45.2127 24.274 45.6687 23.533 45.8777 22.887C45.6307 23.419 45.1747 24.122 44.4717 24.996C43.6167 26.079 42.7617 26.877 41.9257 27.428C41.7927 26.934 41.7357 26.402 41.7357 25.813C41.7357 23.856 42.4007 22.412 43.7307 21.519C44.7377 20.854 45.8587 20.512 47.0937 20.512C48.3287 20.512 49.5447 20.854 50.7037 21.519C51.7867 22.146 52.6987 23.02 53.4017 24.122C53.7247 24.635 54.0287 25.281 54.2947 26.022C54.6367 27.01 54.8077 28.017 54.8077 29.024ZM40.0067 21.348C40.0067 22.127 39.7407 22.849 39.2277 23.514C38.5247 24.407 37.5557 24.844 36.3017 24.844C35.7697 24.844 35.1807 24.749 34.5157 24.559C34.5157 24.35 34.6297 23.97 34.8577 23.4C35.0667 22.925 35.1997 22.583 35.2947 22.355C35.7507 21.196 36.0547 20.417 36.2067 19.98C36.3017 19.695 36.4347 19.505 36.5677 19.334C36.8527 19.011 37.2517 18.84 37.7457 18.84C39.1137 18.84 40.0067 19.923 40.0067 21.348ZM37.1187 29.29C35.4847 29.727 33.9077 29.917 32.3877 29.86C32.4447 29.651 32.4827 29.499 32.5397 29.404C33.2997 27.523 33.8887 26.041 34.3257 24.882C34.7817 25.091 35.2377 25.243 35.6747 25.3C36.2827 27.124 36.7577 28.435 37.1187 29.29ZM34.6867 19.714C34.6867 19.828 34.6487 19.98 34.5727 20.189L31.3427 28.587C31.1717 28.986 30.9817 29.385 30.7347 29.784C30.4497 29.727 30.0697 29.632 29.5947 29.461C28.7017 29.157 27.9417 28.701 27.2957 28.093C26.5167 27.371 26.1367 26.307 26.1367 24.901C26.1367 23.818 26.4027 22.811 26.9537 21.88C27.6947 20.588 28.8347 19.638 30.3357 19.049C30.5827 18.954 30.9627 18.84 31.4757 18.707C32.1027 18.555 32.4827 18.498 32.6157 18.536L32.3307 18.65C31.3047 18.84 30.3927 19.239 29.5947 19.847C28.6637 20.569 28.1887 21.405 28.1887 22.336C28.1887 23.115 28.7207 23.799 29.4997 23.799C29.9367 23.799 30.4307 23.552 30.3737 23.153C30.3547 23.058 30.3167 22.963 30.2597 22.906C29.9747 22.849 29.7467 22.811 29.5757 22.83C29.1957 22.678 28.9677 22.355 28.9107 21.88C28.8157 21.31 29.0627 20.721 29.6327 20.132C30.5257 19.239 31.6467 18.783 32.9767 18.783C33.2997 18.783 33.6607 18.859 34.0217 19.011C34.4587 19.182 34.6867 19.429 34.6867 19.714ZM42.5262 31H48.1502C51.8362 31 54.6862 28.131 54.6862 24.388C54.6862 20.645 51.8362 17.7 48.1502 17.7H42.5262V31ZM48.1692 19.6C50.8102 19.6 52.7862 21.69 52.7862 24.388C52.7862 27.105 50.8102 29.1 48.1692 29.1H44.4262V19.6H48.1692ZM57.5288 24.35C57.5288 21.481 59.6948 19.315 62.5638 19.315C65.4328 19.315 67.5988 21.481 67.5988 24.35C67.5988 27.219 65.4328 29.385 62.5638 29.385C59.6948 29.385 57.5288 27.219 57.5288 24.35ZM55.6288 24.35C55.6288 28.302 58.6118 31.285 62.5638 31.285C66.5157 31.285 69.4988 28.302 69.4988 24.35C69.4988 20.398 66.5157 17.415 62.5638 17.415C58.6118 17.415 55.6288 20.398 55.6288 24.35ZM74.6053 17.7H70.7293V31H72.6293V17.7L76.4293 31H80.3053V17.7H78.4053V31L74.6053 17.7Z" fill="white"/>
</svg>
