<svg width="812" height="349" viewBox="0 0 812 349" fill="none" xmlns="http://www.w3.org/2000/svg">
<path d="M65.4438 138H84.6438V3.59999H65.4438V138ZM103.881 138H172.809V118.8H123.081V3.59999H103.881V138ZM182.444 138H251.372V118.8H201.644V3.59999H182.444V138ZM291.873 3.59999L311.073 138H330.465L311.265 3.59999H272.481L253.281 138H272.673L291.873 3.59999ZM340.131 3.59999V138H359.331V80.4H402.723L436.131 138H458.211C443.043 111.12 431.139 80.784 397.923 73.296V72.72C404.259 74.064 410.595 74.832 417.123 74.832C439.203 74.832 453.987 65.808 453.987 42C453.987 20.112 436.515 3.59999 414.819 3.59999H340.131ZM414.819 22.8C425.763 22.8 434.787 30.864 434.787 42C434.787 53.136 425.763 61.2 414.819 61.2H359.331V22.8H414.819ZM471.569 138H490.769V3.59999H471.569V138ZM522.486 70.8C522.486 41.808 544.374 19.92 573.366 19.92C602.358 19.92 624.246 41.808 624.246 70.8C624.246 99.792 602.358 121.68 573.366 121.68C544.374 121.68 522.486 99.792 522.486 70.8ZM503.286 70.8C503.286 110.736 533.43 140.88 573.366 140.88C613.302 140.88 643.446 110.736 643.446 70.8C643.446 30.864 613.302 0.719994 573.366 0.719994C533.43 0.719994 503.286 30.864 503.286 70.8ZM695.049 3.59999H655.881V138H675.081V3.59999L713.481 138H752.649V3.59999H733.449V138L695.049 3.59999ZM0.13 223.8C0.13 263.736 30.274 293.88 70.21 293.88C89.602 293.88 106.69 286.776 119.17 274.872V223.992H51.01V243.192H117.442C110.146 262.008 92.29 274.68 70.21 274.68C41.218 274.68 19.33 252.792 19.33 223.8C19.33 194.808 41.218 172.92 70.21 172.92C94.21 172.92 113.218 187.896 119.17 209.4V172.728C106.69 160.824 89.602 153.72 70.21 153.72C30.274 153.72 0.13 183.864 0.13 223.8ZM148.893 223.8C148.893 194.808 170.781 172.92 199.773 172.92C228.765 172.92 250.653 194.808 250.653 223.8C250.653 252.792 228.765 274.68 199.773 274.68C170.781 274.68 148.893 252.792 148.893 223.8ZM129.693 223.8C129.693 263.736 159.837 293.88 199.773 293.88C239.708 293.88 269.853 263.736 269.853 223.8C269.853 183.864 239.708 153.72 199.773 153.72C159.837 153.72 129.693 183.864 129.693 223.8ZM560.304 267.576C560.304 247.608 555.696 230.52 546.48 216.504C539.376 205.752 530.16 197.496 518.448 191.544C506.736 185.592 494.256 182.52 481.392 182.52C465.456 182.52 451.44 186.744 439.344 195C425.52 204.216 418.032 221.304 418.032 238.392C418.032 244.92 418.992 250.872 421.104 256.248C410.928 262.584 400.176 267.384 388.464 270.648C383.28 258.168 379.44 245.496 377.136 232.824C384.624 231.864 389.808 231.096 392.688 230.136C397.68 228.6 402.288 226.104 406.32 222.648C414.384 215.544 418.416 207.288 418.416 197.88C418.416 189.24 414.768 181.752 407.664 175.8C401.712 171 394.032 167.544 384.624 165.432C380.208 164.472 371.952 163.512 358.896 162.168C346.8 161.016 337.008 161.016 329.52 162.168C316.464 164.28 304.176 168.504 292.464 175.224C281.712 181.56 273.264 189.048 266.927 198.072C259.823 208.248 256.367 219 256.367 230.328C256.367 233.208 256.751 236.088 257.327 239.736C260.591 257.976 272.88 271.032 294.576 278.904C299.184 280.632 303.408 281.592 307.44 282.168C301.872 288.12 295.536 290.808 288.048 290.424V291C296.688 290.808 305.52 290.616 315.312 290.616C322.416 290.616 331.824 290.808 344.112 291V290.424C334.704 290.232 329.328 287.928 327.792 283.128L327.6 282.744C344.496 282.936 360.624 280.632 375.984 275.832C378.288 280.632 381.167 285.24 384.432 290.424C394.992 306.744 408.816 320.568 425.52 331.896C441.264 342.648 457.2 348.024 473.136 348.024C486.768 348.024 499.824 345.912 512.112 341.88C526.512 336.888 537.264 329.784 544.368 320.376C554.928 305.976 560.304 288.312 560.304 267.576ZM553.584 271.032C553.584 291.96 548.4 309.432 537.84 323.448C533.232 329.592 527.28 334.2 519.792 337.464C514.032 339.96 506.544 341.88 497.136 343.224C506.544 338.616 511.344 332.472 511.344 324.6C511.344 317.688 506.352 311.736 499.632 314.04C496.752 315.192 495.024 317.496 494.832 320.76C494.832 322.104 497.712 325.368 497.712 327.48C497.712 333.048 494.256 337.464 487.536 340.344C483.12 342.456 478.128 343.416 472.944 343.416C458.16 343.416 442.992 336.696 427.44 323.064C414.96 312.12 404.4 299.448 395.76 284.856C393.264 280.44 391.344 276.6 389.232 272.184C398.448 269.304 409.008 264.12 421.296 257.016C424.176 265.08 428.016 270.648 432.816 273.912C428.016 267.576 424.944 261.624 423.6 255.672C433.008 250.104 441.648 242.04 449.712 231.672C456.624 223.032 461.232 215.544 463.344 209.016C460.848 214.392 456.24 221.496 449.136 230.328C440.496 241.272 431.856 249.336 423.408 254.904C422.064 249.912 421.488 244.536 421.488 238.584C421.488 218.808 428.208 204.216 441.648 195.192C451.824 188.472 463.152 185.016 475.632 185.016C488.112 185.016 500.4 188.472 512.112 195.192C523.056 201.528 532.272 210.36 539.376 221.496C542.64 226.68 545.712 233.208 548.4 240.696C551.856 250.68 553.584 260.856 553.584 271.032ZM404.016 193.464C404.016 201.336 401.328 208.632 396.144 215.352C389.04 224.376 379.248 228.792 366.576 228.792C361.2 228.792 355.248 227.832 348.528 225.912C348.528 223.8 349.68 219.96 351.984 214.2C354.096 209.4 355.44 205.944 356.4 203.64C361.008 191.928 364.08 184.056 365.616 179.64C366.576 176.76 367.92 174.84 369.264 173.112C372.144 169.848 376.176 168.12 381.167 168.12C394.992 168.12 404.016 179.064 404.016 193.464ZM374.832 273.72C358.32 278.136 342.384 280.056 327.024 279.48C327.6 277.368 327.984 275.832 328.56 274.872C336.24 255.864 342.192 240.888 346.608 229.176C351.216 231.288 355.824 232.824 360.24 233.4C366.384 251.832 371.184 265.08 374.832 273.72ZM350.256 176.952C350.256 178.104 349.872 179.64 349.104 181.752L316.464 266.616C314.736 270.648 312.816 274.68 310.32 278.712C307.44 278.136 303.6 277.176 298.8 275.448C289.776 272.376 282.096 267.768 275.568 261.624C267.695 254.328 263.855 243.576 263.855 229.368C263.855 218.424 266.543 208.248 272.111 198.84C279.6 185.784 291.12 176.184 306.288 170.232C308.784 169.272 312.624 168.12 317.808 166.776C324.144 165.24 327.984 164.664 329.328 165.048L326.448 166.2C316.08 168.12 306.864 172.152 298.8 178.296C289.392 185.592 284.592 194.04 284.592 203.448C284.592 211.32 289.968 218.232 297.84 218.232C302.256 218.232 307.248 215.736 306.672 211.704C306.48 210.744 306.096 209.784 305.52 209.208C302.64 208.632 300.336 208.248 298.608 208.44C294.768 206.904 292.464 203.64 291.888 198.84C290.928 193.08 293.424 187.128 299.184 181.176C308.208 172.152 319.536 167.544 332.976 167.544C336.24 167.544 339.888 168.312 343.536 169.848C347.952 171.576 350.256 174.072 350.256 176.952ZM429.475 291H486.307C523.555 291 552.355 262.008 552.355 224.184C552.355 186.36 523.555 156.6 486.307 156.6H429.475V291ZM486.499 175.8C513.187 175.8 533.155 196.92 533.155 224.184C533.155 251.64 513.187 271.8 486.499 271.8H448.675V175.8H486.499ZM581.08 223.8C581.08 194.808 602.968 172.92 631.96 172.92C660.952 172.92 682.84 194.808 682.84 223.8C682.84 252.792 660.952 274.68 631.96 274.68C602.968 274.68 581.08 252.792 581.08 223.8ZM561.88 223.8C561.88 263.736 592.024 293.88 631.96 293.88C671.896 293.88 702.04 263.736 702.04 223.8C702.04 183.864 671.896 153.72 631.96 153.72C592.024 153.72 561.88 183.864 561.88 223.8ZM753.643 156.6H714.475V291H733.675V156.6L772.075 291H811.243V156.6H792.043V291L753.643 156.6Z" fill="white"/>
</svg>
